<?xml version="1.0" encoding="UTF-8"?>
<svg width="118px" height="198px" viewBox="0 0 118 198" version="1.1" xmlns="http://www.w3.org/2000/svg" xmlns:xlink="http://www.w3.org/1999/xlink">
    <title>KL60</title>
    <g id="Page-1" stroke="none" stroke-width="1" fill="none" fill-rule="evenodd">
        <g id="KL60">
            <g id="fitting" transform="translate(32.500000, 113.000000)">
                <path d="M54.5,31.1496007 C50.7983272,32.573251 4.65870516,32.801913 0.5,31.0228988 C0.561928499,32.3996595 0.664729808,35.5719954 1.20144347,36.4898359 C1.5317288,37.0884275 2.25422796,37.5273947 3.59601211,38.3055637 C3.88501177,38.4651882 4.25658277,38.6846718 4.54558243,38.8642492 C4.81393926,39.2234042 5.08229609,39.6025122 5.28872443,39.9816202 C5.53643842,40.4205874 5.72222392,40.8795076 5.82543809,41.3184748 L5.84608092,41.378334 L5.86672375,41.4182401 C6.19700908,42.3161275 6.48600875,43.4734046 6.73372274,44.8501653 C7.00207957,46.3466443 7.20850791,48.0825599 7.37365057,49.9182408 C7.53879324,51.9334992 7.6420074,54.0285698 7.7039359,56.1036874 C7.7658644,58.3982885 7.78650723,60.6729366 7.72457873,62.7081481 L15.4243555,71.0684775 L20.4405639,75.2985248 L20.4612068,75.3184779 L20.5850638,75.4182431 C21.4933484,76.1764592 22.4222759,76.9346752 27.1701275,77.1142527 L27.2526989,77.1142527 C32.0005505,76.9546282 32.9088351,76.1764592 33.8377626,75.4182431 L33.9616196,75.3184779 L33.9822625,75.2985248 L38.9984709,71.0684775 L46.6982477,62.7081481 C46.656962,60.6729366 46.656962,58.3982885 46.7188905,56.1036874 C46.7601762,54.0485229 46.8840332,51.9334992 47.0491758,49.9182408 C47.2143185,48.0825599 47.4207468,46.3665973 47.6891036,44.8501653 C47.9161748,43.4933576 48.2051745,42.3161275 48.5561026,41.4182401 L48.5767455,41.378334 L48.5973883,41.3184748 C48.7006025,40.8795076 48.886388,40.4405405 49.1134591,39.9816202 C49.4024588,39.4827939 49.7740298,38.9640145 50.1662436,38.5050943 L50.1868864,38.4851412 C50.3726719,38.405329 50.5584574,38.3055637 50.7236001,38.2457046 C52.2511698,37.5673008 53.0768831,37.1682397 53.4484541,36.4898359 C53.9645249,35.5719954 54.4380715,32.5263613 54.5,31.1496007 Z M3.70170342,34.1140258 C11.0299092,34.8722418 43.9114652,34.295 51.2396709,33.4968779 C51.1983853,34.0555634 51.1158139,34.5942958 50.9713141,34.9534508 C50.6616716,35.1330282 49.9391725,35.4722302 49.4850301,35.6717607 C48.4322456,36.150634 47.7510321,36.4698828 47.3175326,36.8489908 C47.2556041,36.8489908 47.1936756,36.8689439 47.1317471,36.8689439 C46.037677,36.9687092 44.8610355,37.0684744 43.6224655,37.1482866 C41.207254,37.3079111 38.6062571,37.4276294 36.0052601,37.5074416 C32.9914065,37.6072069 29.9775528,37.647113 27.1701275,37.667066 C24.3833451,37.647113 21.3282058,37.6072069 18.334995,37.5074416 C15.733998,37.4276294 13.133001,37.3079111 10.7384324,37.1482866 C9.49986238,37.0684744 8.34386373,36.9886622 7.31172207,36.8888969 C7.08465091,36.8689439 6.87822258,36.8489908 6.65115141,36.8290378 C6.27958042,36.5696481 5.80479525,36.2703523 5.14422459,35.8912443 C4.7107251,35.6318546 4.00886877,35.2327935 3.74051194,35.033263 C3.57536928,34.654155 3.74298908,34.6926644 3.70170342,34.1140258 Z M32.6611211,74.1811538 L32.5372641,74.2809191 C31.8766935,74.8196515 31.2161228,75.378337 27.2114132,75.5379615 C23.2067036,75.3982901 22.5461329,74.8396046 21.8855622,74.2809191 L21.7617053,74.1811538 L18.5207805,71.4675385 C19.0162084,71.4874916 19.5735649,71.5074447 20.1515643,71.5273977 C21.1837059,71.5673038 22.2984189,71.5872569 23.5163461,71.5872569 C24.6929876,71.6072099 25.9522004,71.6072099 27.2114132,71.6072099 C28.470626,71.6072099 29.7298388,71.5872569 30.9064803,71.5872569 C32.1037646,71.5673038 33.2391205,71.5473508 34.2712621,71.5273977 C34.8492614,71.5074447 35.3859751,71.4874916 35.8814031,71.4675385 L32.6611211,74.1811538 Z M47.0491758,39.5626061 C46.7601762,40.0813855 46.5537478,40.6201179 46.409248,41.1788034 C46.0583198,42.13655 45.7486773,43.3536863 45.5009633,44.7304469 C45.2326065,46.246879 45.0261782,47.9827947 44.8816783,49.8184756 C44.7165357,51.7539218 44.6133215,53.8489924 44.551393,55.944063 C44.4894645,57.9593214 44.4688217,59.9546267 44.5101073,61.7903076 L43.7463225,61.8501668 C43.1270375,61.8900729 42.569681,61.929979 42.0123245,61.9698851 C41.2691825,62.0097912 40.5260406,62.0496973 39.8241842,62.0896034 C39.0397566,62.1295095 38.2759717,62.1694156 37.5328298,62.1893687 C36.6658308,62.2292748 35.8401174,62.2492279 35.0350469,62.2691809 C34.168048,62.289134 33.301049,62.309087 32.4753356,62.3290401 C31.567051,62.3489931 30.6794092,62.3689462 29.833053,62.3689462 C28.9247683,62.3888992 28.0371265,62.3888992 27.1907704,62.3888992 C26.3444142,62.3888992 25.4567724,62.3689462 24.5484877,62.3689462 C23.7021316,62.3489931 22.8144897,62.3489931 21.9062051,62.3290401 C21.0598489,62.309087 20.2134928,62.289134 19.3464938,62.2691809 C18.5414233,62.2292748 17.71571,62.2093218 16.848711,62.1893687 C16.105569,62.1494626 15.3417842,62.1295095 14.5573565,62.0896034 C13.8555002,62.0496973 13.133001,62.0097912 12.3692162,61.9698851 C11.8325025,61.929979 11.2545032,61.8900729 10.655861,61.8501668 L9.89207621,61.7903076 C9.91271904,60.5133122 9.91271904,59.1764576 9.89207621,57.7996969 C11.9563595,57.9792744 14.2064283,58.0989927 16.5184256,58.198758 C20.7708493,58.3783355 25.1884155,58.4581477 29.0073397,58.4581477 L29.0073397,57.2609645 C25.1471299,57.2609645 20.7502064,57.1811523 16.5803541,57.0015748 C14.2270712,56.9018095 11.9563595,56.7621382 9.87143338,56.5825607 C9.87143338,56.3630771 9.85079054,56.1435935 9.85079054,55.944063 C9.83014771,54.9663634 9.78886204,53.9687107 9.72693355,53.0109641 C11.8325025,53.1905416 14.1444998,53.330213 16.5184256,53.4299782 C20.7708493,53.6095557 25.1884155,53.6893679 29.0073397,53.6893679 L29.0073397,52.4921847 C25.1471299,52.4921847 20.7502064,52.4123725 16.5803541,52.232795 C14.1651427,52.1330298 11.8118597,51.9933584 9.66500505,51.7938279 C9.62371938,51.115424 9.58243371,50.4569733 9.52050521,49.7985225 C9.47921955,49.2597901 9.41729105,48.7210576 9.35536255,48.2022782 C11.5435029,48.4018088 14,48.5414802 16.5184256,48.6611985 C20.7708493,48.840776 25.1884155,48.9205882 29.0073397,48.9205882 L29.0073397,47.723405 C25.1471299,47.723405 20.7502064,47.6435927 16.5803541,47.4640153 C14,47.3442969 11.4815744,47.2046256 9.23150555,46.985142 C9.12829139,46.1870198 9.02507722,45.4288038 8.88057739,44.7104939 C8.79800606,44.2316206 8.71543472,43.7926534 8.61222056,43.3736393 C11.0067892,43.5931229 13.7110003,43.7727004 16.5184256,43.8924187 C20.7708493,44.0719962 25.1884155,44.1518084 29.0073397,44.1518084 L29.0073397,42.9546252 C25.1471299,42.9546252 20.7502064,42.874813 16.5803541,42.6952355 C13.628429,42.5755172 10.779718,42.3759866 8.30257806,42.13655 C8.19936389,41.777395 8.09614973,41.4581462 7.97229273,41.1388973 C7.84843573,40.6001649 7.62136457,40.0614324 7.35300774,39.5227 C7.16722224,39.1834981 6.94015107,38.8642492 6.73372274,38.5450004 L7.43557907,38.6248126 C8.52964922,38.7245779 9.68564788,38.8243431 10.8622894,38.8842023 C13.1742867,39.0438267 15.7546408,39.143592 18.3969235,39.2433573 C21.3488486,39.3431225 24.3420594,39.3830286 27.108199,39.4029817 L27.1288419,39.4029817 C29.9156243,39.3830286 32.9088351,39.3431225 35.8607603,39.2433573 C38.5030429,39.163545 41.083397,39.0438267 43.3953944,38.8842023 C44.6133215,38.8043901 45.789963,38.7245779 46.8840332,38.6048595 L47.6271751,38.5250473 C47.4620325,38.8842023 47.2349613,39.2234042 47.0491758,39.5626061 Z" id="Shape" stroke="#000000" stroke-width="0.762692399" fill="#000000"></path>
                <path d="M2,33 L0,1.42108547e-14 C7.50028014,0.333333333 16.3336135,0.5 26.5,0.5 C36.6663865,0.5 46.3330532,0.333333333 55.5,1.42108547e-14 L53,32" id="Path" stroke="#000000" stroke-width="3.5"></path>
                <polygon id="Path-2" fill="#000000" points="23.5 19 23.5 15 24.5 14 27.5 17 27.5 19"></polygon>
                <polyline id="Path-3" stroke="#000000" stroke-width="1.5" points="25.5 13 29 16.5 29 19"></polyline>
                <polyline id="Path-4" stroke="#000000" stroke-width="1.5" points="27 11.5 31 15.5 31 19"></polyline>
            </g>
            <g id="body" transform="translate(10.000000, 4.000000)" stroke="#000000">
                <path d="M77,109 C80,97 86,91.5 91.5,81.5 C97.5274743,69.835554 100,66.9192192 100,50 C100,22.3857625 77.6142375,0 50,0 C22.3857625,0 0,22.3857625 0,50 C0,60.1799762 2.5,70 8,80 C13.5,91 21,97.5 23,109" id="Path" stroke-width="3"></path>
                <g id="Group" transform="translate(28.000000, 21.500000)">
                    <polyline id="Path-5" stroke-width="1.5" points="22 1 4 0 0 61 21.5 61"></polyline>
                    <polyline id="Path" stroke-width="1.5" points="22 1 13.5 1 10 61"></polyline>
                    <line x1="3.5" y1="6.5" x2="0.5" y2="55.5" id="Path-6" stroke-width="4"></line>
                    <line x1="13" y1="8" x2="10.5" y2="55.5" id="Path-8" stroke-width="4"></line>
                </g>
                <g id="Group" transform="translate(60.500000, 52.000000) scale(-1, 1) translate(-60.500000, -52.000000) translate(50.000000, 21.500000)">
                    <polyline id="Path-5" stroke-width="1.5" points="21 1 4 0 0 61 21 61"></polyline>
                    <polyline id="Path" stroke-width="1.5" points="21 1 12.5 1 9 61"></polyline>
                    <line x1="3.5" y1="6.5" x2="0.5" y2="55.5" id="Path-6" stroke-width="4"></line>
                    <line x1="12" y1="8" x2="9.5" y2="55.5" id="Path-8" stroke-width="4"></line>
                </g>
                <line x1="50" y1="22" x2="50" y2="91" id="Path-9" stroke-width="2"></line>
                <path d="M40,110 C40,104 40,103 40,95 C40,92.3333333 41.8333333,91 45.5,91 L49.5,91 L49,91 L53,91 C56.6666667,91 58.5,92.3333333 58.5,95 C58.5,103 58.5,104 58.5,110" id="Path-7" stroke-width="2"></path>
            </g>
            <rect id="Rectangle" x="0" y="0" width="118" height="198"></rect>
        </g>
    </g>
</svg>