<?xml version="1.0" encoding="UTF-8" standalone="no"?>
<!DOCTYPE svg PUBLIC "-//W3C//DTD SVG 1.1//EN" "http://www.w3.org/Graphics/SVG/1.1/DTD/svg11.dtd">
<svg width="100%" height="100%" viewBox="0 0 524 925" version="1.1" xmlns="http://www.w3.org/2000/svg" xmlns:xlink="http://www.w3.org/1999/xlink" xml:space="preserve" xmlns:serif="http://www.serif.com/" style="fill-rule:evenodd;clip-rule:evenodd;stroke-linecap:round;stroke-linejoin:round;stroke-miterlimit:1.5;">
    <g transform="matrix(1.18243,0,0,1.04547,-90.6299,-23.9529)">
        <path d="M298.068,123.138C438.001,121.657 499.475,249.905 496.793,465.215C493.918,695.896 430.336,806.396 298.068,807.291C153.177,808.271 99.942,668.839 99.343,465.215C98.676,238.694 165.672,124.54 298.068,123.138Z" style="fill:none;stroke:black;stroke-width:20.31px;"/>
    </g>
    <g transform="matrix(1.00342,0,0,0.854698,-36.9475,97.7469)">
        <path d="M298.068,123.138C438.001,121.657 499.475,249.905 496.793,465.215C493.918,695.896 430.336,806.396 298.068,807.291C153.177,808.271 99.942,668.839 99.343,465.215C98.676,238.694 165.672,124.54 298.068,123.138Z" style="fill:none;stroke:black;stroke-width:12.88px;"/>
    </g>
    <circle cx="261.814" cy="280.87" r="33.798" style="fill:none;stroke:black;stroke-width:18.67px;"/>
    <circle cx="261.814" cy="146.33" r="11.069" style="fill:none;stroke:black;stroke-width:10px;"/>
    <g id="Creation-Socket-EU" serif:id="Creation/Socket-EU" transform="matrix(0.485875,0,0,0.485875,102.62,445.187)">
        <path id="Combined-Shape" d="M601.51,367.238L600.894,373.146C597.347,407.159 587.543,439.796 571.722,470.263L570.868,471.893L559.937,492.445L559.937,367.238L601.51,367.238ZM101.337,367.238L101.337,492.411L90.21,471.541C82.869,457.641 76.747,443.261 71.981,428.716C66.423,411.814 62.585,394.514 60.552,377.187L60.316,375.108L59.49,367.238L101.337,367.238ZM559.94,165.25L570.002,183.787C585.802,212.89 595.94,244.065 600.173,276.569L600.398,278.343L601.33,286.104L559.94,286.104L559.94,165.25ZM101.335,165.385L101.335,286.104L59.662,286.104L60.655,278.068C62.917,260.317 66.908,243.055 72.527,226.723C77.478,212.128 83.457,198.28 90.339,185.474L91.283,183.735L101.335,165.385Z" style="fill:none;fill-rule:nonzero;stroke:black;stroke-width:10.7px;stroke-linecap:butt;stroke-miterlimit:4;"/>
        <path id="Combined-Shape-path" d="M431.303,328.848C431.303,305.118 450.538,285.883 474.267,285.883C497.997,285.883 517.232,305.118 517.232,328.848C517.232,352.577 497.997,371.813 474.267,371.813C450.538,371.813 431.303,352.577 431.303,328.848Z" style="fill-rule:nonzero;"/>
        <path id="Combined-Shape-path1" serif:id="Combined-Shape-path" d="M142.115,328.848C142.115,305.118 161.35,285.883 185.08,285.883C208.81,285.883 228.045,305.118 228.045,328.848C228.045,352.577 208.81,371.813 185.08,371.813C161.35,371.813 142.115,352.577 142.115,328.848Z" style="fill-rule:nonzero;"/>
        <circle id="Oval" cx="330.5" cy="330.5" r="315.628" style="fill:none;stroke:black;stroke-width:38.42px;stroke-linecap:butt;stroke-linejoin:miter;stroke-miterlimit:4;"/>
    </g>
    <g id="path3775" transform="matrix(0.0938843,0,0,0.0938843,191.031,340.681)">
        <path d="M188.5,633.067C180.317,631.052 173.054,625.118 168.837,617L166.5,612.5L165.5,496.5L48.5,495.5L43.887,492.788C38.892,489.852 34.072,484.866 31.269,479.736C29.643,476.761 29.5,472.39 29.5,425.5L29.5,374.5L287.5,374.5L287.5,633.5L239.5,633.652C213.1,633.736 190.15,633.473 188.5,633.067Z" style="fill-rule:nonzero;"/>
    </g>
    <g id="path3761" transform="matrix(0.0938843,0,0,0.0938843,191.031,340.681)">
        <path d="M329.505,491.87C329.217,491.116 329.097,465.3 329.24,434.5L329.5,378.5L358,377.881C387.427,377.242 390.615,376.842 404.336,372.076C439.023,360.026 462.242,322.622 459.644,282.98C456.968,242.139 432.887,212.945 394.781,204.342C385.16,202.17 364.948,202.128 355.356,204.26C320.848,211.931 295.065,236.889 286.407,271C285.145,275.97 284.643,284.031 284.275,305.25C283.842,330.127 283.622,333.005 282.146,333.045C272.994,333.294 170.484,332.817 170.191,332.524C169.316,331.649 170.114,271.879 171.106,264C179.429,197.858 221.639,139.028 282.248,109.096C312.354,94.227 340.087,87.789 374.5,87.68C408.224,87.573 436.657,93.653 464.5,106.926C520.732,133.733 558.279,182.682 570.473,245.079C584.553,317.131 562.9,387.724 511.716,436.635C481.99,465.041 446.916,482.667 405.234,490.144C395.497,491.891 388.099,492.334 361.764,492.744C335.484,493.154 329.939,493.004 329.505,491.87L329.505,491.87Z" style="fill-rule:nonzero;"/>
    </g>
    <g id="path3773" transform="matrix(0.0938843,0,0,0.0938843,191.031,340.681)">
        <path d="M763.5,554.055C762.4,553.604 760.6,552.236 759.5,551.013C757.533,548.826 757.5,547.382 757.5,462.502L757.5,376.214L762.611,370.357C773.405,357.987 792.454,346.52 810,341.83C816.982,339.964 821.09,339.557 833,339.555C850.031,339.551 855.916,340.839 869.5,347.547C902.808,363.996 919.44,402.654 909.578,440.702C902.223,469.078 878.668,490.211 848.539,495.465C843.204,496.396 833.699,497 824.404,497C810.268,497 808.99,496.849 808.035,495.066C807.466,494.002 807,487.897 807,481.5C807,475.103 807.466,468.998 808.035,467.934C808.987,466.156 810.261,466 823.854,466C844.146,466 852.277,463.498 862.226,454.192C880.51,437.089 881.682,404.737 864.687,386.269C854.844,375.573 841.174,371.06 824.737,373.08C815.186,374.253 802.911,380.203 797.152,386.451L793,390.955L793,471.778C793,533.306 792.714,552.886 791.8,553.8C790.416,555.184 766.779,555.397 763.5,554.055Z" style="fill-rule:nonzero;"/>
    </g>
    <g id="path3771" transform="matrix(0.0938843,0,0,0.0938843,191.031,340.681)">
        <path d="M680.209,495.475C672.027,493.698 664.54,490.155 659.278,485.571C653.687,480.699 648.321,469.722 647.024,460.5C645.95,452.861 645.583,316.25 646.63,313.523C647.417,311.471 678.731,295.683 680.595,296.398C681.682,296.815 682.017,301.476 682.231,319.211L682.5,341.5L703.736,341.77C728.753,342.088 726.22,340.051 725.788,359.5L725.5,372.5L704,373.05C692.175,373.353 682.364,373.69 682.198,373.8C682.031,373.91 682.031,392.113 682.198,414.25C682.485,452.532 682.599,454.671 684.523,458C685.721,460.073 688.356,462.418 690.985,463.75C695.161,465.867 696.643,466 716.012,466C730.692,466 736.944,466.344 737.8,467.2C738.611,468.011 739,472.644 739,481.5C739,490.356 738.611,494.989 737.8,495.8C736.03,497.57 688.626,497.303 680.209,495.475Z" style="fill-rule:nonzero;"/>
    </g>
    <g id="path3769" transform="matrix(0.0938843,0,0,0.0938843,191.031,340.681)">
        <path d="M1031.08,494.411L1028,491.822L1028,289.43L1044.12,281.154C1052.99,276.603 1060.86,273.117 1061.62,273.408C1062.78,273.853 1063,291.494 1063,384.862C1063,485.088 1062.85,495.845 1061.42,496.393C1060.55,496.727 1054.06,497 1047,497C1034.64,497 1034.04,496.902 1031.08,494.411Z" style="fill-rule:nonzero;"/>
    </g>
    <g id="path3767" transform="matrix(0.0938843,0,0,0.0938843,191.031,340.681)">
        <path d="M1101.31,495.99C1095.78,493.765 1095.96,496.637 1096.24,416.416L1096.5,342.5L1130.5,342.5L1130.76,418.937C1130.96,479.425 1130.75,495.541 1129.76,496.172C1128.06,497.251 1104.06,497.098 1101.31,495.99Z" style="fill-rule:nonzero;"/>
    </g>
    <g id="path3765" transform="matrix(0.0938843,0,0,0.0938843,191.031,340.681)">
        <path d="M1169.11,495.604C1164.01,492.776 1164.07,493.606 1164.04,431.7C1164.01,383.552 1164.24,373.45 1165.42,371.2C1167.3,367.651 1178.25,357.114 1184.24,353.096C1191.64,348.134 1204.72,342.227 1213.5,339.887C1223.97,337.095 1243.21,336.844 1253.5,339.365C1279.78,345.803 1300.25,366.125 1306.99,392.468C1308.87,399.792 1309,403.528 1309,448.053C1309,490.657 1308.83,495.851 1307.42,496.393C1304.33,497.577 1276.46,497.065 1275.2,495.8C1274.3,494.902 1274,483.335 1274,449.905C1274,408.216 1273.87,404.78 1272.02,398.813C1266.91,382.245 1254.47,372.306 1237.55,371.253C1224.36,370.433 1213.32,374.196 1203.88,382.732L1200,386.233L1200,439.682C1200,474.614 1199.64,493.802 1198.96,495.066C1198.02,496.831 1196.78,496.997 1184.71,496.965C1175.67,496.94 1170.75,496.511 1169.11,495.604Z" style="fill-rule:nonzero;"/>
    </g>
    <g id="path3763" transform="matrix(0.0938843,0,0,0.0938843,191.031,340.681)">
        <path d="M1345.31,495.99C1339.71,493.737 1339.97,499.077 1340.25,389.918L1340.5,289.5L1357.19,281.025C1366.37,276.363 1374.25,272.913 1374.69,273.358C1375.14,273.802 1375.73,303.941 1376,340.333L1376.5,406.5L1403.82,374.25L1431.13,342L1451.07,342C1467.63,342 1471,342.24 1471,343.422C1471,344.205 1457.25,360.455 1440.45,379.534C1423.64,398.614 1410.03,414.792 1410.2,415.486C1410.36,416.179 1425.75,433.967 1444.38,455.012C1463.02,476.058 1478.32,494.003 1478.38,494.889C1478.49,496.313 1476.15,496.531 1458.22,496.771L1437.94,497.042L1435.72,494.612C1434.5,493.275 1420.9,476.869 1405.5,458.153C1390.1,439.437 1377.16,424.096 1376.75,424.062C1376.34,424.028 1376,439.555 1376,458.566C1376,480.48 1375.62,493.839 1374.96,495.066C1374.02,496.834 1372.79,496.995 1360.71,496.937C1353.45,496.902 1346.51,496.476 1345.31,495.99Z" style="fill-rule:nonzero;"/>
    </g>
    <g id="path3759" transform="matrix(0.0938843,0,0,0.0938843,191.031,340.681)">
        <path d="M951.752,435.25C949.226,432.413 935.9,403.703 936.447,402.277C936.848,401.233 943.127,401.024 967.724,401.236L998.5,401.5L998.775,418.426C998.984,431.297 998.745,435.545 997.775,436.16C997.074,436.605 986.782,436.976 974.905,436.985C955.587,436.998 953.146,436.816 951.752,435.25Z" style="fill-rule:nonzero;"/>
    </g>
    <g id="path2987" transform="matrix(0.0938843,0,0,0.0938843,191.031,340.681)">
        <path d="M1095.31,306.502C1091.9,304.114 1089.69,296.997 1090.19,290.029C1090.73,282.543 1094.36,276.911 1101.45,272.524C1105.71,269.892 1107.26,269.504 1113.42,269.53C1121.27,269.563 1126.42,271.627 1131.2,276.658C1138.57,284.425 1139.06,298.459 1132.22,306.25C1130.88,307.785 1128.65,308 1114.07,308C1100.92,308 1097,307.687 1095.31,306.502Z" style="fill-rule:nonzero;"/>
    </g>
</svg>
