<?xml version="1.0" encoding="UTF-8"?>
<svg width="145px" height="208px" viewBox="0 0 145 208" version="1.1" xmlns="http://www.w3.org/2000/svg" xmlns:xlink="http://www.w3.org/1999/xlink">
    <title>HS220</title>
    <defs>
        <polygon id="path-1" points="0 3 5 13 10 3 5 0"></polygon>
    </defs>
    <g id="Page-1" stroke="none" stroke-width="1" fill="none" fill-rule="evenodd">
        <g id="HS220">
            <rect id="Rectangle" stroke="#000000" stroke-width="3.5" x="7" y="7" width="131" height="195" rx="8"></rect>
            <rect id="Rectangle" stroke="#000000" stroke-width="3" x="46" y="53" width="50" height="101" rx="3"></rect>
            <line x1="46" y1="58.5" x2="96" y2="58.5" id="Line-2" stroke="#000000" stroke-width="2" stroke-linecap="square"></line>
            <line x1="46" y1="71.5" x2="96" y2="71.5" id="Line-2" stroke="#000000" stroke-width="2" stroke-linecap="square"></line>
            <circle id="Oval" stroke="#000000" cx="59.5" cy="64.5" r="1.5"></circle>
            <circle id="Oval" stroke="#000000" cx="82.5" cy="64.5" r="1.5"></circle>
            <circle id="Oval" stroke="#000000" stroke-width="2" cx="71" cy="130" r="6"></circle>
            <line x1="71.5" y1="58.5" x2="71.5" y2="71.5" id="Line-3" stroke="#000000" stroke-linecap="square"></line>
            <g id="Oval-+-Oval-+-Oval-Mask" transform="translate(66.000000, 113.000000)">
                <mask id="mask-2" fill="white">
                    <use xlink:href="#path-1"></use>
                </mask>
                <g id="Mask"></g>
                <path d="M5,21 C9.97056275,21 14,16.9705627 14,12 C14,8.10643676 11.5275487,4.79034545 8.06702978,3.5361097 C7.10981477,3.18917524 6.0769995,3 5,3 C0.0294372518,3 -4,7.02943725 -4,12 C-4,16.9705627 0.0294372518,21 5,21 Z" id="Oval" stroke="#000000" mask="url(#mask-2)"></path>
                <path d="M5,19 C8.86599325,19 12,15.8659932 12,12 C12,8.97167303 10.0769823,6.39249091 7.38546761,5.41697421 C6.64096704,5.14713629 5.83766628,5 5,5 C1.13400675,5 -2,8.13400675 -2,12 C-2,15.8659932 1.13400675,19 5,19 Z" id="Oval" stroke="#000000" mask="url(#mask-2)"></path>
                <path d="M5,17 C7.76142375,17 10,14.7614237 10,12 C10,9.83690931 8.62641596,7.99463636 6.70390543,7.29783872 C6.17211931,7.10509735 5.59833306,7 5,7 C2.23857625,7 0,9.23857625 0,12 C0,14.7614237 2.23857625,17 5,17 Z" id="Oval" stroke="#000000" mask="url(#mask-2)"></path>
            </g>
            <rect id="Rectangle" x="0" y="0" width="145" height="208"></rect>
        </g>
    </g>
</svg>