<?xml version="1.0" encoding="UTF-8"?>
<svg width="118px" height="190px" viewBox="0 0 118 190" version="1.1" xmlns="http://www.w3.org/2000/svg" xmlns:xlink="http://www.w3.org/1999/xlink">
    <title>iconsmall</title>
    <g id="Page-1" stroke="none" stroke-width="1" fill="none" fill-rule="evenodd">
        <g id="icon">
            <g id="fitting" transform="translate(31.704102, 137.022899)" fill="#000000" fill-rule="nonzero" stroke="#000000" stroke-width="0.762692399">
                <path d="M54,0.126701889 C50.2983272,1.55035225 4.15870516,1.77901424 0,0 C0.0619284993,1.37676069 0.164729808,4.54909665 0.701443469,5.46693711 C1.0317288,6.06552871 1.75422796,6.50449589 3.09601211,7.28266497 C3.38501177,7.4422894 3.75658277,7.66177299 4.04558243,7.84135047 C4.31393926,8.20050543 4.58229609,8.57961345 4.78872443,8.95872146 C5.03643842,9.39768864 5.22222392,9.85660887 5.32543809,10.295576 L5.34608092,10.3554352 L5.36672375,10.3953413 C5.69700908,11.2932287 5.98600875,12.4505058 6.23372274,13.8272665 C6.50207957,15.3237455 6.70850791,17.0596612 6.87365057,18.8953421 C7.03879324,20.9106005 7.1420074,23.0056711 7.2039359,25.0807886 C7.2658644,27.3753898 7.28650723,29.6500379 7.22457873,31.6852493 L14.9243555,40.0455787 L19.9405639,44.275626 L19.9612068,44.2955791 L20.0850638,44.3953444 C20.9933484,45.1535604 21.9222759,45.9117764 26.6701275,46.0913539 L26.7526989,46.0913539 C31.5005505,45.9317295 32.4088351,45.1535604 33.3377626,44.3953444 L33.4616196,44.2955791 L33.4822625,44.275626 L38.4984709,40.0455787 L46.1982477,31.6852493 C46.156962,29.6500379 46.156962,27.3753898 46.2188905,25.0807886 C46.2601762,23.0256241 46.3840332,20.9106005 46.5491758,18.8953421 C46.7143185,17.0596612 46.9207468,15.3436986 47.1891036,13.8272665 C47.4161748,12.4704589 47.7051745,11.2932287 48.0561026,10.3953413 L48.0767455,10.3554352 L48.0973883,10.295576 C48.2006025,9.85660887 48.386388,9.41764169 48.6134591,8.95872146 C48.9024588,8.45989513 49.2740298,7.94111574 49.6662436,7.48219551 L49.6868864,7.46224245 C49.8726719,7.38243024 50.0584574,7.28266497 50.2236001,7.22280581 C51.7511698,6.544402 52.5768831,6.14534093 52.9484541,5.46693711 C53.4645249,4.54909665 53.9380715,1.50346258 54,0.126701889 Z M32.1611211,43.158255 L32.0372641,43.2580203 C31.3766935,43.7967528 30.7161228,44.3554383 26.7114132,44.5150627 C22.7067036,44.3753913 22.0461329,43.8167058 21.3855622,43.2580203 L21.2617053,43.158255 L18.0207805,40.4446398 C18.5162084,40.4645928 19.0735649,40.4845459 19.6515643,40.5044989 C20.6837059,40.544405 21.7984189,40.5643581 23.0163461,40.5643581 C24.1929876,40.5843112 25.4522004,40.5843112 26.7114132,40.5843112 C27.970626,40.5843112 29.2298388,40.5643581 30.4064803,40.5643581 C31.6037646,40.544405 32.7391205,40.524452 33.7712621,40.5044989 C34.3492614,40.4845459 34.8859751,40.4645928 35.3814031,40.4446398 L32.1611211,43.158255 Z M46.5491758,8.53970734 C46.2601762,9.05848673 46.0537478,9.59721917 45.909248,10.1559047 C45.5583198,11.1136512 45.2486773,12.3307875 45.0009633,13.7075482 C44.7326065,15.2239802 44.5261782,16.9598959 44.3816783,18.7955768 C44.2165357,20.731023 44.1133215,22.8260936 44.051393,24.9211642 C43.9894645,26.9364226 43.9688217,28.931728 44.0101073,30.7674089 L43.2463225,30.827268 C42.6270375,30.8671741 42.069681,30.9070802 41.5123245,30.9469863 C40.7691825,30.9868925 40.0260406,31.0267986 39.3241842,31.0667047 C38.5397566,31.1066108 37.7759717,31.1465169 37.0328298,31.1664699 C36.1658308,31.206376 35.3401174,31.2263291 34.5350469,31.2462821 C33.668048,31.2662352 32.801049,31.2861883 31.9753356,31.3061413 C31.067051,31.3260944 30.1794092,31.3460474 29.333053,31.3460474 C28.4247683,31.3660005 27.5371265,31.3660005 26.6907704,31.3660005 C25.8444142,31.3660005 24.9567724,31.3460474 24.0484877,31.3460474 C23.2021316,31.3260944 22.3144897,31.3260944 21.4062051,31.3061413 C20.5598489,31.2861883 19.7134928,31.2662352 18.8464938,31.2462821 C18.0414233,31.206376 17.21571,31.186423 16.348711,31.1664699 C15.605569,31.1265638 14.8417842,31.1066108 14.0573565,31.0667047 C13.3555002,31.0267986 12.633001,30.9868925 11.8692162,30.9469863 C11.3325025,30.9070802 10.7545032,30.8671741 10.155861,30.827268 L9.39207621,30.7674089 C9.41271904,29.4904134 9.41271904,28.1535589 9.39207621,26.7767982 C11.4563595,26.9563757 13.7064283,27.076094 16.0184256,27.1758592 C20.2708493,27.3554367 24.6884155,27.4352489 28.5073397,27.4352489 L28.5073397,26.2380657 C24.6471299,26.2380657 20.2502064,26.1582535 16.0803541,25.978676 C13.7270712,25.8789108 11.4563595,25.7392394 9.37143338,25.5596619 C9.37143338,25.3401783 9.35079054,25.1206947 9.35079054,24.9211642 C9.33014771,23.9434646 9.28886204,22.9458119 9.22693355,21.9880654 C11.3325025,22.1676428 13.6444998,22.3073142 16.0184256,22.4070795 C20.2708493,22.586657 24.6884155,22.6664692 28.5073397,22.6664692 L28.5073397,21.469286 C24.6471299,21.469286 20.2502064,21.3894738 16.0803541,21.2098963 C13.6651427,21.110131 11.3118597,20.9704596 9.16500505,20.7709291 C9.12371938,20.0925253 9.08243371,19.4340745 9.02050521,18.7756238 C8.97921955,18.2368913 8.91729105,17.6981589 8.85536255,17.1793795 C11.0435029,17.37891 13.5,17.5185814 16.0184256,17.6382997 C20.2708493,17.8178772 24.6884155,17.8976894 28.5073397,17.8976894 L28.5073397,16.7005062 C24.6471299,16.7005062 20.2502064,16.620694 16.0803541,16.4411165 C13.5,16.3213982 10.9815744,16.1817268 8.73150555,15.9622432 C8.62829139,15.1641211 8.52507722,14.405905 8.38057739,13.6875951 C8.29800606,13.2087218 8.21543472,12.7697547 8.11222056,12.3507405 C10.5067892,12.5702241 13.2110003,12.7498016 16.0184256,12.8695199 C20.2708493,13.0490974 24.6884155,13.1289096 28.5073397,13.1289096 L28.5073397,11.9317264 C24.6471299,11.9317264 20.2502064,11.8519142 16.0803541,11.6723367 C13.128429,11.5526184 10.279718,11.3530879 7.80257806,11.1136512 C7.69936389,10.7544963 7.59614973,10.4352474 7.47229273,10.1159986 C7.34843573,9.57726612 7.12136457,9.03853368 6.85300774,8.49980123 C6.66722224,8.16059932 6.44015107,7.84135047 6.23372274,7.52210161 L6.93557907,7.60191383 C8.02964922,7.7016791 9.18564788,7.80144436 10.3622894,7.86130352 C12.6742867,8.02092795 15.2546408,8.12069322 17.8969235,8.22045848 C20.8488486,8.32022375 23.8420594,8.36012986 26.608199,8.38008291 L26.6288419,8.38008291 C29.4156243,8.36012986 32.4088351,8.32022375 35.3607603,8.22045848 C38.0030429,8.14064627 40.583397,8.02092795 42.8953944,7.86130352 C44.1133215,7.78149131 45.289963,7.7016791 46.3840332,7.58196077 L47.1271751,7.50214856 C46.9620325,7.86130352 46.7349613,8.20050543 46.5491758,8.53970734 Z" id="Shape"></path>
            </g>
            <path d="M36.5901134,145.035223 C35.9432865,145.035223 33.6497751,141.404241 29.7095791,134.142278 C29.6605842,132.090998 28.4438405,120.172024 26.7509766,106.873535 C25.5958426,97.7992467 22.3541135,90.3953284 19.0264668,83.1088454 L18.4209388,81.7849787 C18.3200081,81.5644347 18.2191099,81.3439121 18.1182998,81.1233677 L17.514942,79.7994939 C13.6057792,71.1881201 10,62.4121347 10,50.9082031 C10,23.4599227 30.9635656,6.10431346 58.45585,6 C58.4983694,6 58.5397594,6 58.5811347,6 L58.7041016,6 L58.7041016,6 C86.1975007,6.10431346 107.161066,23.4599227 107.161066,50.9082031 C107.161066,62.4121347 103.555287,71.1881201 99.6461244,79.7994939 L99.0427665,81.1233677 C98.9419564,81.3439121 98.8410582,81.5644347 98.7401275,81.7849787 L98.1345995,83.1088454 C94.8069528,90.3953284 91.5652237,97.7992467 90.4100898,106.873535 C88.7172258,120.172024 87.5004821,132.090998 87.4514872,134.142278 C83.9318649,141.404241 81.6383535,145.035223 80.570953,145.035223 C77.0187794,145.035223 72.5482452,145.022623 67.9580287,145.019824 L64.5054053,145.019911 C62.492844,145.021442 60.4955928,145.025921 58.5805332,145.035223 L58.704,145.035223 L58.7041016,145.035223 L36.5901134,145.035223 L36.5901134,145.035223 Z" id="Combined-Shape" stroke="#000000" stroke-width="4"></path>
            <path d="M15.7041016,75 C31.7041016,77.447998 60.0218076,77.447998 59.2041016,77.447998 C58.3863955,77.447998 89.168457,77.447998 102.704102,75" id="Path" stroke="#000000" stroke-width="4"></path>
            <path d="M30.7041016,136.081247 C38.0737741,137.360416 47.497019,138 58.9738362,138 C70.6911194,138 80.2678744,137.333333 87.7041016,136" id="Path-19" stroke="#000000" stroke-width="4"></path>
            <rect id="Rectangle" x="0" y="0" width="118" height="190"></rect>
        </g>
    </g>
</svg>