<svg height="960" viewBox="0 0 960 960" width="960" xmlns="http://www.w3.org/2000/svg"><g fill="none" fill-rule="evenodd"><g stroke="#000" stroke-linejoin="round"><path d="m342.103787 73.8481687c14.594088-1.2831751 27.891113-1.0974438 39.893437.483529 14.865058 1.9580584 31.520299 7.2810308 49.896632 16.2214901 9.30174 4.525486 16.16651 12.1630722 19.864649 21.1023452 3.720479 8.993273 4.23486 19.304308.802435 29.093626l-1.470419 4.050864c-1.713416 4.717947-3.404515 9.402455-5.073296 14.053524l-2.492676 6.969035c-38.542944 108.098359-64.841067 197.781981-78.816621 269.070825-19.720257 100.592395-22.734794 213.572509-18.87938 296.927954.031158.67366.062768 1.345383.094823 2.015149l.064629 1.34449.093525-.105584c55.101203-63.681515 100.07195-160.852797 131.203516-266.559458l1.055937-3.606906c7.96265-27.362696 15.420163-54.105208 22.498939-79.883924l3.019018-11.017546 2.973637-10.8893 10.105054-37.09932 2.810303-10.287321 2.779757-10.135705c18.352814-66.754359 34.868657-122.928856 52.265811-161.041491 17.172478-37.62043 36.538031-57.4169783 56.364056-61.2280302 38.692371-7.4376297 113.677719 11.6098526 117.811911 14.1498209 8.897722 5.4665903 15.889889 13.4846483 20.130709 22.8692473 4.122732 9.123277 5.657683 19.532703 3.823325 30.146661-8.791767 51.533732-15.363565 89.307091-19.714788 113.320184-3.047974 16.820847-6.956043 37.891629-11.724319 63.212462l-.039391.20721.220009-.265375c57.613692-69.477567 120.087565-135.464067 170.600889-180.381949l1.912444-1.695579c.66119-.584465 1.640452-1.396149 2.948798-2.422072l26.282332-20.608943-1.806532 146.90626c-3.048083 4.003626-5.172165 6.749796-6.364904 8.242422l-49.945596 62.50578c-2.79744 3.80186-61.403427 84.572801-63.942651 88.27042-44.457547 64.739089-103.250676 195.361911-176.757386 391.644125-4.286459 11.445971-11.774474 25.143397-22.656793 40.998519-.166051.24193-.331918.482942-.498137.720319-.207836.247118-.417902.492512-.630181.736149-11.219259 12.876584-28.148073 20.30409-46.193586 18.910491l-1.905935-.152057-1.903828-.163669-1.876353-.173321-1.821336-.180313c-6.898837-.705759-13.117686-1.610366-18.658669-2.700029l-1.496114-.301825-1.467402-.312343c-2.837881-.619399-5.492708-1.292634-7.965632-2.015227l-.618507-.182399-1.231573-.373835-1.268017-.398959-1.24873-.406159c-.452079-.149241-.909086-.302529-1.371017-.459882l-1.251803-.432163c-.241938-.084616-.485193-.170316-.729764-.257102l-1.313103-.471656-1.334857-.491302c-.247168-.091991-.495601-.185023-.745299-.279098l-1.363096-.518975-1.410474-.548391-1.405653-.55745c-.255666-.102326-.512542-.205648-.770627-.309967l-1.41268-.576c-.259649-.106772-.520489-.214523-.78252-.323256l-1.445723-.604783c-.263805-.111231-.528784-.223428-.794937-.336591l-1.478988-.633584c-.268115-.115705-.537388-.232363-.807819-.349975l-1.53132-.670666-1.572171-.698196-1.593237-.717012-1.597634-.728186c-.281808-.129221-.564738-.259366-.84879-.390435l-1.613861-.74899c-.286586-.133759-.574284-.268434-.863094-.404024l-1.663023-.785012-1.693407-.807993-.858134-.412652c-12.756246-6.147459-22.379221-16.430216-27.84962-28.579273-2.869998-6.373897-4.597109-13.261572-5.034039-20.335788l-.00892-.142029-.02715.039988c-19.316122 26.547968-41.723209 48.240766-67.06309 61.377544l-2.006608 1.019271c-10.439863 6.480069-29.177686 11.707827-57.596465 6.657758-18.728285-3.32805-42.17813-11.192607-70.424826-26.509424-23.782791-12.896257-41.526649-38.62781-52.953061-74.349907-7.74022-24.198051-12.695211-53.0582-15.32456-84.868435l-.03724-.458795-.120016.165647c-2.036987 2.780585-4.057731 5.489237-6.068109 8.134781l-1.004352 1.317555-1.705498 2.2185-.915083 1.180462-1.780394 2.276831c-6.346276 8.06917-12.600893 15.519082-18.76082 22.352288l-1.728019 1.903449c-4.745546 5.190317-9.4373 10.016014-14.073193 14.479108-45.816332 44.108566-81.4928221 72.297413-110.216766 91.417308-3.5434237 2.358655-13.2392943 8.665077-29.0969299 18.905179l-.1092519-123.937263c4.0708639-4.499396 6.8723571-7.602373 8.4043031-9.309092 54.8071627-61.059857 95.3178437-116.416713 121.3739667-166.174925 17.691017-33.783743 34.923205-70.757672 51.093836-112.085691 16.506781-42.187132 49.909255-158.575327 62.779804-203.366041 2.379487-8.280835 4.067462-14.153296 4.833358-16.725281l35.668483-119.779678c2.878325-9.1477573 8.379633-16.9727699 15.552611-22.7122776 7.128361-5.7038065 15.907694-9.3478349 25.402857-10.1826907z" stroke-width="32"/><path d="m317.583726 98.0857416c-49.186891 158.0482014-79.808337 288.0540804-91.864339 390.0176384-18.706678 158.211616-15.617735 326.37924 52.754589 364.422095 68.372324 38.042854 106.548935 29.105996 116.99783 17.27644 10.448894-11.829556-54.618661 8.325814-62.237571-79.272428s-7.965279-232.467968 16.148777-358.684054c15.38343-80.518862 45.438639-183.595092 90.165628-309.228688 3.619354-10.166399-.819896-21.4442-10.397954-26.4157373-18.039236-9.3633524-34.267223-15.019318-48.683963-16.9678968-11.866183-1.6038434-25.110654-1.6431598-39.733413-.1179493v.000001c-10.814687 1.128014-19.918495 8.5883855-23.149584 18.970579z" stroke-linecap="round" stroke-width="16"/><path d="m651.790002 90.0245897c14.596516-1.0983316 29.063939-.5043359 43.402268 1.781987 11.999589 1.9133982 24.044672 3.965897 36.135249 6.1574961v-.0000004c16.836176 3.0518106 28.073272 19.0940666 25.188632 35.9596896-19.313207 112.918492-38.382001 217.835555-57.206385 314.75119-16.385444 84.358976-45.361611 217.81544-86.928502 400.36939h-.000002c-3.739917 16.425011-18.824033 27.725472-35.63813 26.698765-16.648116-1.016571-29.943984-2.990126-39.887605-5.920666-10.167385-2.996487-23.511919-8.633985-40.033602-16.912496l.000001-.000001c-15.769132-7.90143-23.714532-25.880345-18.941119-42.860116 40.615352-144.475135 72.960359-272.833836 97.03502-385.076103 28.012568-130.601801 42.734937-253.336473 45.516214-273.603145 2.04514-14.902568 3.704697-27.064678 4.978671-36.48633h.000001c1.822032-13.474794 12.820199-23.8393911 26.379289-24.8596603z" stroke-linecap="round" stroke-width="16"/></g><g fill="#000" transform="translate(242.30659 80.297994)"><ellipse cx="110.19341" cy="86.202006" rx="26.5" ry="23.5"/><ellipse cx="135.19341" cy="12.702006" rx="28.5" ry="13"/><ellipse cx="88.19341" cy="166.202006" rx="26.5" ry="23.5"/><ellipse cx="445.19341" cy="78.202006" rx="26.5" ry="23.5"/><ellipse cx="434.19341" cy="160.202006" rx="26.5" ry="23.5"/><ellipse cx="419.19341" cy="240.202006" rx="26.5" ry="23.5"/><ellipse cx="404.19341" cy="323.202006" rx="26.5" ry="23.5"/><ellipse cx="385.19341" cy="406.202006" rx="26.5" ry="23.5"/><ellipse cx="364.284624" cy="496.826361" rx="26.184944" ry="23.439049" transform="matrix(.9781476 .20791169 -.20791169 .9781476 111.256502 -64.882184)"/><ellipse cx="342.234609" cy="588.746132" rx="26.184777" ry="23.439198" transform="matrix(.98480775 .17364818 -.17364818 .98480775 107.434006 -50.48404)"/><ellipse cx="320.184594" cy="679.746705" rx="26.184777" ry="23.439198" transform="matrix(.98480775 .17364818 -.17364818 .98480775 122.9011 -45.272591)"/><ellipse cx="65.19341" cy="249.202006" rx="26.5" ry="23.5"/><ellipse cx="44.19341" cy="338.202006" rx="26.5" ry="23.5"/><ellipse cx="32.19341" cy="426.202006" rx="26.5" ry="23.5"/><ellipse cx="27.19341" cy="511.202006" rx="26.5" ry="23.5"/><ellipse cx="29.19341" cy="599.202006" rx="26.5" ry="23.5"/><ellipse cx="36.19341" cy="685.702006" rx="26.5" ry="22"/></g></g></svg>