<svg height="960" viewBox="0 0 960 960" width="960" xmlns="http://www.w3.org/2000/svg"><g fill="none" fill-rule="evenodd"><g stroke="#000" stroke-linejoin="round"><path d="m100.965059 293.664602 240.6 64.191749c19.127262 5.103127 32.434941 22.426765 32.434941 42.223079v339.789244c0 24.134843-19.565156 43.7-43.7 43.7-4.108191 0-8.19586-.579296-12.142283-1.720779l-240.5999999-69.592366c-18.6921592-5.406615-31.5577171-22.520847-31.5577171-41.979221v-334.388626c0-24.134844 19.5651564-43.7 43.7-43.7 3.8032904 0 7.5903081.496502 11.265059 1.47692z" stroke-linecap="round" stroke-width="20"/><path d="m186.002953 350c2.504165.666971 4.893149 1.303264 7.166951 1.908879 31.172421 8.302608 77.931052 20.756519 140.275894 37.361734 2.522189.671771 4.660739 2.148391 6.168742 4.108866 1.508004 1.960475 2.38546 4.404804 2.38546 7.011996v340.09905c0 3.178254-1.28979 6.055622-3.375099 8.138428-2.085309 2.082805-4.966136 3.371047-8.14821 3.371047-1.082777 0-2.160151-.152426-3.200332-.452782l-141.276359-40.794225" stroke-linecap="round" stroke-width="20"/><path d="m168.805283 438.460087 99.391395 26.437742c11.082287 2.947847 18.795919 12.981027 18.796439 24.448672l.005372 118.361135c.000634 13.972804-11.326048 25.300514-25.298852 25.301148-2.290114.000104-4.56964-.310732-6.776117-.923991l-99.390639-27.624232c-10.948092-3.042868-18.524437-13.011597-18.525031-24.374685l-.006129-117.174646c-.00073-13.972804 11.325873-25.300592 25.298677-25.301323 2.196003-.000115 4.382676.28568 6.504885.85018z" stroke-linecap="round" stroke-width="20"/><path d="m603.92255 144.18344c11.522175-2.839174 23.552706-2.911205 35.108053-.210206l237.885911 55.604529c17.183028 4.016439 31.813606 13.737367 42.092864 26.865386 10.279259 13.128018 16.207198 29.663126 15.98495 47.307923l-4.162386 330.46197c-.165483 13.138101-4.658449 25.432552-12.27524 35.320747-7.616791 9.888196-18.357406 17.370138-31.018186 20.883222l-506.671404 140.590009c-14.266955 3.958761-29.160763 4.981297-43.784413 3.037806-2.118004.213487-4.266773.323099-6.441093.323099-5.986166 0-11.942449-.843799-17.693069-2.506493l-240.9416057-69.664195c-13.62504-3.93945-25.1267728-12.146265-33.2222457-22.913998-8.0954728-10.767734-12.7846856-24.096386-12.7846856-38.279509v-334.668129c0-15.802626 5.7565132-30.259739 15.2818336-41.394142 9.4683253-11.067781 22.6690497-18.838615 37.6438141-21.395213z" stroke-width="40"/></g><path d="m593 424.057042 28-7.057042v91.942958l-28 7.057042z" fill="#000"/><path d="m699 394.057042 28-7.057042v91.942958l-28 7.057042z" fill="#000"/><path d="m637 624v-47.826028c0-15.044286 10.013684-28.249606 24.5-32.30882 10.260632-2.875135 20.909275 3.111994 23.784409 13.372626.474828 1.694542.715591 3.44608.715591 5.205891v47.826028z" fill="#000"/></g></svg>