<svg height="960" viewBox="0 0 960 960" width="960" xmlns="http://www.w3.org/2000/svg"><g fill="none" fill-rule="evenodd"><g stroke="#000" stroke-linejoin="round"><path d="m95.1930469 313.409885 233.6481691 62.33701c19.127262 5.103127 32.434941 22.426766 32.434941 42.223079v330.643983c0 24.134843-19.565156 43.7-43.7 43.7-4.108191 0-8.19586-.579296-12.142283-1.720779l-233.6481695-67.581583c-18.6921591-5.406615-31.5577171-22.520847-31.5577171-41.979221v-325.399409c0-24.134844 19.5651565-43.7 43.7-43.7 3.8032904 0 7.5903081.496502 11.2650595 1.47692z" stroke-linecap="round" stroke-width="20"/><path d="m622.943611 135.406234c12.098706-3.322316 24.834875-3.564339 37.048642-.706008l221.390037 51.810889c17.176743 4.019794 31.801424 13.740048 42.078057 26.865425 10.276637 13.125382 16.205052 29.655921 15.988985 47.302749l-3.90576 309.767351c-.162445 12.912377-4.507709 25.024261-11.904666 34.835361-7.345807 9.743255-17.701246 17.217435-29.958494 20.953154l-524.65041 171.333046c-15.083558 4.561476-30.942377 5.810964-46.497568 3.701369-2.050394.199867-4.129463.302406-6.232434.302406-5.987206 0-11.944514-.844092-17.696052-2.507355l-223.6000005-64.661977c-13.6242951-3.939955-25.125282-12.146842-33.2201951-22.914377-8.0949131-10.767536-12.7837524-24.09572-12.7837524-38.278267v-312.325317c0-14.078105 4.5711414-27.087175 12.3007887-37.632275 3.4419546-4.695654 7.5129139-8.900318 12.0880813-12.491861l-2.4983789-5.245498z" stroke-width="40"/><path d="m556.917927 166.620107c33.076366 6.980379 52.582017 11.165032 58.516953 12.553957l221.390038 51.810889c25.218911 5.901865 42.943098 28.543933 42.621703 54.442183l-3.901466 307.767913c-.214944 17.085412-11.499144 32.052433-27.865853 36.960422" stroke-linecap="round" stroke-width="20"/></g><path d="m586.985849 421.047703 26.503145-6.679778v87.027768l-26.503145 6.679779z" fill="#000"/><path d="m687.319182 392.651477 26.503145-6.679779v87.027768l-26.503145 6.679779z" fill="#000"/><path d="m628.633648 610.301887v-45.269291c0-14.240032 9.478361-26.739407 23.190251-30.581619 9.712108-2.721433 19.791484 2.94563 22.512916 12.657737.449444 1.603954.677336 3.261856.677336 4.927589v45.269291z" fill="#000"/></g></svg>